<svg width="250" height="67" viewBox="0 0 250 67" fill="none" xmlns="http://www.w3.org/2000/svg">
<g clip-path="url(#clip0_107_19)">
<g clip-path="url(#clip1_107_19)">
<path d="M222.059 66.8029C221.222 67.0228 220.314 67.0213 219.466 66.7905L210.565 64.259C209.246 63.9118 209.749 63.5393 210.091 63.316C211.485 62.3753 211.767 62.1808 213.157 60.8143C213.305 60.6685 213.54 60.6469 213.744 60.7133L220.584 62.6655C220.829 62.7346 221.128 62.6558 221.295 62.4784L240.854 43.1052C241.033 42.9246 241.105 42.6387 241.039 42.389L234.041 15.7701C233.972 15.508 233.772 15.3068 233.511 15.2286L206.97 7.99208C206.725 7.92303 206.438 7.99854 206.259 8.17921L186.725 27.5458C186.533 27.7298 186.462 28.0156 186.531 28.2778L193.526 54.8842C193.591 55.1339 193.794 55.3475 194.049 55.4007L201.324 57.3853C205.207 58.193 206.775 55.6313 206.24 53.5961L199.334 27.3268C199.235 26.9523 199.459 26.5863 199.834 26.4878L202.755 25.7196C203.117 25.6244 203.505 25.8295 203.603 26.2041L210.513 52.4858C211.715 57.0555 209.907 60.334 205.575 61.4732C204.24 61.8245 203.191 62.1003 199.889 61.4202L192.931 59.5258C191.206 59.0582 189.859 57.6905 189.403 55.9551L182.408 29.3487C181.955 27.6257 182.452 25.7596 183.723 24.5042L203.257 5.13759C204.501 3.92944 206.436 3.42058 208.1 3.86379L234.66 11.122C236.385 11.5895 237.732 12.9572 238.188 14.6927L245.184 41.2991C245.637 43.0221 245.136 44.8756 243.868 46.1436L224.31 65.5167C223.685 66.1349 222.907 66.5796 222.059 66.8029ZM233.775 35.6761C232.465 30.6944 228.747 30.2573 221.422 31.1824C214.007 32.118 213.155 31.8214 212.715 30.1484C212.351 28.7625 212.477 26.7538 217.782 25.3585C222.514 24.1143 224.531 24.6785 226.095 27.6843C226.236 27.9675 226.57 28.1201 226.882 28.038L229.878 27.2501C230.065 27.2008 230.22 27.0799 230.309 26.9098C230.398 26.7396 230.411 26.5359 230.349 26.3519C228.44 20.9673 224.109 19.3697 216.719 21.3133C210.14 23.0434 206.949 26.846 208.173 31.5031C209.499 36.5472 213.774 36.918 220.243 35.8843C227.989 34.6347 228.868 35.5916 229.259 37.0774C229.935 39.6494 228.151 41.2931 223.295 42.5702C217.191 44.1756 215.451 42.9912 214.204 40.0754C214.069 39.7639 213.732 39.5989 213.395 39.6875L210.411 40.4722C210.037 40.5707 209.828 40.9458 209.923 41.3079C210.944 45.1909 214.272 49.2681 224.371 46.6122C231.659 44.6824 235.095 40.6952 233.775 35.6761V35.6761Z" fill="#00990F"/>
</g>
<g clip-path="url(#clip2_107_19)">
<path d="M65.2338 5.53882L46.7028 45.3546L58.8544 59.0336L76.775 62.7191L101.987 26.7608L65.2338 5.53882ZM90.78 30.5003L87.7069 34.7627L73.9472 33.1097L73.913 33.1027L84.5847 39.2648L75.2587 52.5903L64.274 49.9105L56.4314 41.6552L59.9025 34.2276L64.5827 36.9301L62.7726 40.7731L67.072 44.9532L73.1583 46.5021L76.9164 40.81L61.0274 31.5715L61.0329 31.5619L61.0082 31.5604L63.2221 26.9295L76.5318 28.6545L77.3032 28.7553L65.5404 21.9632L67.599 17.115L90.78 30.5003Z" fill="#0077E4"/>
</g>
<g clip-path="url(#clip3_107_19)">
<path d="M43.3313 1.38171L64.147 46.1192L50.527 61.4691L30.3177 65.653L1.9868 25.2551L43.3313 1.38171ZM18.0887 34.298L37.8781 22.8711L40.5037 28.4389L21.5972 39.356L32.2749 54.4707L44.4919 51.2881L44.5105 51.3203L44.629 51.252L53.5609 42.1797L49.5008 33.6545L44.365 36.62L46.3537 40.9352L41.4937 45.8207L34.8116 47.5998L30.3039 41.2833L48.2737 30.9071L40.6123 14.4523L14.6535 29.4415L18.0887 34.298V34.298Z" fill="#F00000"/>
</g>
<g clip-path="url(#clip4_107_19)">
<path d="M149.608 12.6821L107.909 2.78169C104.77 2.03635 101.618 3.98164 100.871 7.12465L90.9619 48.8734C90.2158 52.0164 92.1575 55.1711 95.2968 55.9165L136.996 65.8169C140.135 66.5622 143.288 64.6169 144.034 61.4739L153.943 19.7252C154.689 16.5821 152.748 13.4274 149.608 12.6821ZM121.268 49.7292C120.04 54.9003 116.447 56.5405 112.029 55.4914C108.037 54.5436 106.216 51.9314 105.626 49.1476L110.272 47.6572C110.724 49.2305 111.156 50.5734 112.874 50.9813C114.509 51.3694 115.703 50.9765 116.297 48.4739L120.326 31.5016L125.313 32.6857L121.268 49.7292V49.7292ZM131.279 60.0619C126.647 58.9622 124.174 56.0446 123.404 52.8047L128.024 51.421C128.677 53.4176 129.768 55.0423 132.22 55.6245C134.281 56.1139 135.853 55.3971 136.193 53.962C136.599 52.2541 135.392 51.3285 133.345 49.7776L132.228 48.9485C128.99 46.5635 127.067 44.0649 128.033 39.9968C128.923 36.2489 132.453 34.0802 136.896 35.1349C140.07 35.8887 142.083 37.5318 143.031 40.8138L138.554 42.382C138.064 40.6495 137.284 39.8252 135.85 39.4849C134.393 39.139 133.25 39.8447 132.963 41.0544C132.608 42.5489 133.388 43.3731 135.31 44.8192L136.427 45.6482C140.238 48.4698 142.177 50.8972 141.186 55.0721C140.122 59.5553 136.006 61.1842 131.279 60.0619V60.0619Z" fill="#FB9600"/>
</g>
<g clip-path="url(#clip5_107_19)">
<path d="M188.256 26.8832C187.62 26.6713 186.985 26.4712 186.349 26.2828C186.455 25.8473 186.549 25.4117 186.643 24.9761C188.091 17.9598 187.138 12.3208 183.924 10.4608C180.829 8.68319 175.779 10.5314 170.67 14.9814C170.164 15.417 169.67 15.8761 169.199 16.3352C168.881 16.0291 168.552 15.723 168.222 15.4287C162.866 10.6727 157.499 8.67142 154.285 10.5432C151.201 12.3326 150.283 17.6419 151.578 24.2815C151.708 24.9408 151.849 25.5883 152.014 26.2475C151.26 26.4594 150.519 26.6949 149.824 26.9421C143.539 29.12 139.03 32.5575 139.03 36.1127C139.03 39.7857 143.833 43.4705 150.366 45.7072C150.895 45.8838 151.425 46.0604 151.967 46.2134C151.79 46.9198 151.637 47.6143 151.496 48.3324C150.26 54.8661 151.225 60.0459 154.309 61.8235C157.487 63.66 162.831 61.7764 168.034 57.2205C168.446 56.8556 168.858 56.4789 169.27 56.0786C169.788 56.5848 170.329 57.0675 170.87 57.5384C175.908 61.8706 180.887 63.6247 183.96 61.8471C187.138 60.0106 188.174 54.4423 186.832 47.6614C186.726 47.1434 186.608 46.6137 186.479 46.0721C186.855 45.9662 187.22 45.8485 187.585 45.7307C194.377 43.4822 199.297 39.8446 199.297 36.1127C199.297 32.5457 194.659 29.0847 188.256 26.8832V26.8832ZM172.33 16.8885C176.709 13.0743 180.793 11.5792 182.653 12.6505C184.642 13.7924 185.407 18.4071 184.16 24.4699C184.077 24.8702 183.995 25.2586 183.889 25.6471C181.276 25.0585 178.627 24.6347 175.967 24.3993C174.437 22.2096 172.766 20.1141 170.953 18.1481C171.412 17.7126 171.859 17.3005 172.33 16.8885V16.8885ZM158.711 42.2226C159.312 43.2468 159.924 44.271 160.571 45.2716C158.735 45.0715 156.91 44.7772 155.109 44.3887C155.627 42.6935 156.275 40.9394 157.028 39.15C157.569 40.186 158.123 41.2102 158.711 42.2226V42.2226ZM155.145 28.0605C156.84 27.6837 158.641 27.3777 160.512 27.1422C159.888 28.1193 159.276 29.12 158.699 30.1324C158.123 31.133 157.558 32.1572 157.028 33.1932C156.286 31.4391 155.663 29.7204 155.145 28.0605ZM158.37 36.1716C159.147 34.547 159.994 32.9578 160.889 31.392C161.783 29.8263 162.749 28.3077 163.761 26.8126C165.527 26.6831 167.327 26.6125 169.164 26.6125C171 26.6125 172.813 26.6831 174.567 26.8126C175.567 28.2959 176.52 29.8145 177.427 31.3685C178.333 32.9224 179.181 34.5117 179.981 36.1245C179.192 37.7491 178.345 39.3501 177.439 40.9276C176.544 42.4934 175.591 44.012 174.59 45.5188C172.836 45.6483 171.012 45.7072 169.164 45.7072C167.316 45.7072 165.527 45.6483 163.796 45.5424C162.772 44.0473 161.807 42.5169 160.901 40.9512C159.994 39.3855 159.159 37.7962 158.37 36.1716ZM179.628 42.199C180.228 41.1631 180.793 40.1153 181.347 39.0558C182.1 40.7628 182.759 42.4934 183.336 44.271C181.511 44.683 179.663 45.0009 177.803 45.2128C178.439 44.2239 179.039 43.2115 179.628 42.199ZM181.323 33.1932C180.77 32.1572 180.205 31.1213 179.616 30.1088C179.039 29.1082 178.439 28.1193 177.815 27.1422C179.71 27.3777 181.523 27.6955 183.218 28.084C182.677 29.8263 182.041 31.5215 181.323 33.1932V33.1932ZM169.187 19.9493C170.423 21.2914 171.588 22.704 172.671 24.1638C170.341 24.0579 167.998 24.0579 165.668 24.1638C166.821 22.6452 168.01 21.2325 169.187 19.9493ZM155.533 12.7329C157.511 11.5792 161.901 13.2273 166.527 17.3241C166.821 17.5831 167.116 17.8656 167.422 18.1481C165.597 20.1141 163.914 22.2096 162.372 24.3993C159.712 24.6347 157.075 25.0467 154.462 25.6236C154.309 25.0232 154.179 24.411 154.05 23.7989C152.944 18.1011 153.673 13.8042 155.533 12.7329V12.7329ZM152.649 43.7648C152.155 43.6235 151.672 43.4705 151.19 43.3056C148.682 42.5169 145.834 41.269 143.774 39.6327C142.585 38.8086 141.785 37.5372 141.561 36.1127C141.561 33.9584 145.281 31.2037 150.648 29.3319C151.319 29.0964 152.002 28.8845 152.685 28.6844C153.485 31.239 154.45 33.7465 155.568 36.1716C154.438 38.632 153.461 41.1748 152.649 43.7648V43.7648ZM166.374 55.3017C164.432 57.0793 162.184 58.492 159.735 59.4573C158.429 60.0812 156.922 60.1401 155.58 59.6103C153.709 58.5273 152.932 54.3716 153.991 48.7798C154.121 48.1205 154.262 47.4613 154.427 46.8138C157.063 47.3789 159.724 47.7674 162.419 47.9675C163.973 50.1689 165.68 52.2762 167.504 54.2539C167.127 54.6189 166.751 54.972 166.374 55.3017ZM169.258 52.441C168.057 51.146 166.857 49.7098 165.691 48.1676C166.821 48.2147 167.987 48.2383 169.164 48.2383C170.376 48.2383 171.565 48.2147 172.742 48.1558C171.659 49.6509 170.494 51.0754 169.258 52.441V52.441ZM184.642 55.9727C184.536 57.4089 183.83 58.751 182.7 59.6574C180.829 60.7405 176.838 59.3278 172.53 55.6313C172.036 55.2075 171.541 54.7484 171.035 54.2775C172.836 52.2879 174.496 50.1807 176.003 47.9675C178.698 47.7438 181.382 47.3318 184.03 46.7314C184.148 47.2141 184.254 47.6967 184.348 48.1676C184.925 50.7104 185.019 53.3592 184.642 55.9727V55.9727ZM186.785 43.3174C186.455 43.4234 186.125 43.5293 185.784 43.6235C184.96 41.0571 183.948 38.5496 182.783 36.1127C183.913 33.7112 184.866 31.239 185.666 28.7079C186.278 28.8845 186.867 29.0729 187.432 29.2612C192.917 31.1448 196.766 33.9466 196.766 36.0892C196.766 38.3966 192.658 41.375 186.785 43.3174ZM169.164 41.5516C172.142 41.5516 174.555 39.1382 174.555 36.1598C174.555 33.1814 172.142 30.7681 169.164 30.7681C166.186 30.7681 163.773 33.1814 163.773 36.1598C163.773 39.1382 166.186 41.5516 169.164 41.5516Z" fill="#4CBEFE"/>
</g>
</g>
<defs>
<clipPath id="clip0_107_19">
<rect width="250" height="66.1376" fill="white" transform="translate(0 0.862427)"/>
</clipPath>
<clipPath id="clip1_107_19">
<rect width="57.829" height="66.0977" fill="white" transform="matrix(0.967116 -0.254334 0.254273 0.967133 177.419 10.731)"/>
</clipPath>
<clipPath id="clip2_107_19">
<rect width="42.4398" height="56.5901" fill="white" transform="matrix(0.865997 0.500048 -0.499952 0.866053 67.0021 2.47559)"/>
</clipPath>
<clipPath id="clip3_107_19">
<rect width="47.7421" height="63.5814" fill="white" transform="matrix(-0.865997 0.500048 0.499952 0.866053 41.3445 -2.05994)"/>
</clipPath>
<clipPath id="clip4_107_19">
<rect width="54.547" height="62.4127" fill="white" transform="matrix(0.972953 0.231003 -0.230946 0.972966 103.124 -2.36377)"/>
</clipPath>
<clipPath id="clip5_107_19">
<rect width="60.2666" height="60.2744" fill="white" transform="translate(139.03 6.02258)"/>
</clipPath>
</defs>
</svg>
